<?xml version="1.0" encoding="utf-8"?>
<svg version="1.1" xmlns="http://www.w3.org/2000/svg" xmlns:xlink="http://www.w3.org/1999/xlink">
    <symbol viewBox="0 0 64 64">
       <path
       viewBox="0 0 16 16"
        id="search"
        fill="#000" 
        d="M 15.5 13.613281 L 11.714844 10.390625 C 11.410156 10.082031 11 9.902344 10.566406 9.890625 C 12.65625 7.4375 12.4375 3.773438 10.074219 1.589844 C 7.707031 -0.597656 4.035156 -0.523438 1.757812 1.753906 C -0.519531 4.03125 -0.59375 7.699219 1.59375 10.066406 C 3.78125 12.433594 7.445312 12.652344 9.894531 10.558594 C 9.875 10.90625 10.039062 11.320312 10.394531 11.710938 L 13.613281 15.503906 C 14.164062 16.113281 15.066406 16.171875 15.613281 15.621094 C 16.164062 15.070312 16.113281 14.171875 15.503906 13.621094 Z M 6 10 C 3.789062 10 2 8.210938 2 6 C 2 3.789062 3.789062 2 6 2 C 8.210938 2 10 3.789062 10 6 C 10 8.210938 8.210938 10 6 10 Z M 6 10 "/>
    </symbol>
</svg>